<?xml version="1.0" encoding="UTF-8" standalone="no"?>
<!-- Generator: Adobe Illustrator 19.1.0, SVG Export Plug-In . SVG Version: 6.00 Build 0)  -->

<svg
   xmlns:dc="http://purl.org/dc/elements/1.1/"
   xmlns:cc="http://creativecommons.org/ns#"
   xmlns:rdf="http://www.w3.org/1999/02/22-rdf-syntax-ns#"
   xmlns:svg="http://www.w3.org/2000/svg"
   xmlns="http://www.w3.org/2000/svg"
   xmlns:sodipodi="http://sodipodi.sourceforge.net/DTD/sodipodi-0.dtd"
   xmlns:inkscape="http://www.inkscape.org/namespaces/inkscape"
   version="1.1"
   id="Capa_1"
   x="0px"
   y="0px"
   viewBox="0 0 491.858 491.858"
   style="enable-background:new 0 0 491.858 491.858;"
   xml:space="preserve"
   inkscape:version="0.48.4 r9939"
   width="100%"
   height="100%"
   sodipodi:docname="google-plus.svg"><metadata
     id="metadata3093"><rdf:RDF><cc:Work
         rdf:about=""><dc:format>image/svg+xml</dc:format><dc:type
           rdf:resource="http://purl.org/dc/dcmitype/StillImage" /></cc:Work></rdf:RDF></metadata><defs
     id="defs3091" /><sodipodi:namedview
     pagecolor="#ffffff"
     bordercolor="#666666"
     borderopacity="1"
     objecttolerance="10"
     gridtolerance="10"
     guidetolerance="10"
     inkscape:pageopacity="0"
     inkscape:pageshadow="2"
     inkscape:window-width="640"
     inkscape:window-height="480"
     id="namedview3089"
     showgrid="false"
     inkscape:zoom="0.47981328"
     inkscape:cx="245.929"
     inkscape:cy="245.929"
     inkscape:window-x="49"
     inkscape:window-y="24"
     inkscape:window-maximized="0"
     inkscape:current-layer="Capa_1" /><g
     id="g3019"><g
       id="g3021"><g
         id="g3023"><path
           d="M 377.472,224.957 H 201.319 v 58.718 H 308.79 c -16.032,51.048 -63.714,88.077 -120.055,88.077 -69.492,0 -125.823,-56.335 -125.823,-125.824 0,-69.492 56.333,-125.823 125.823,-125.823 34.994,0 66.645,14.289 89.452,37.346 l 42.622,-46.328 C 286.769,77.768 240.159,57.194 188.735,57.194 84.5,57.193 0,141.693 0,245.928 c 0,104.235 84.5,188.737 188.736,188.737 91.307,0 171.248,-64.844 188.737,-150.989 v -58.718 l -0.001,-0.001 0,0 z"
           id="path3025"
           style="fill:#cccccc"
           inkscape:connector-curvature="0" /><polygon
           points="455.827,224.857 455.827,188.826 424.941,188.826 424.941,224.857 388.91,224.857 388.91,255.74 424.941,255.74 424.941,291.772 455.827,291.772 455.827,255.74 491.858,255.74 491.858,224.857 "
           id="polygon3027"
           style="fill:#cccccc" /></g></g><g
       id="g3029" /><g
       id="g3031" /><g
       id="g3033" /><g
       id="g3035" /><g
       id="g3037" /><g
       id="g3039" /><g
       id="g3041" /><g
       id="g3043" /><g
       id="g3045" /><g
       id="g3047" /><g
       id="g3049" /><g
       id="g3051" /><g
       id="g3053" /><g
       id="g3055" /><g
       id="g3057" /></g><g
     id="g3059" /><g
     id="g3061" /><g
     id="g3063" /><g
     id="g3065" /><g
     id="g3067" /><g
     id="g3069" /><g
     id="g3071" /><g
     id="g3073" /><g
     id="g3075" /><g
     id="g3077" /><g
     id="g3079" /><g
     id="g3081" /><g
     id="g3083" /><g
     id="g3085" /><g
     id="g3087" /></svg>