<?xml version="1.0" encoding="UTF-8" standalone="no"?>
<!-- Generator: Adobe Illustrator 19.0.0, SVG Export Plug-In . SVG Version: 6.00 Build 0)  -->

<svg
   xmlns:dc="http://purl.org/dc/elements/1.1/"
   xmlns:cc="http://creativecommons.org/ns#"
   xmlns:rdf="http://www.w3.org/1999/02/22-rdf-syntax-ns#"
   xmlns:svg="http://www.w3.org/2000/svg"
   xmlns="http://www.w3.org/2000/svg"
   xmlns:sodipodi="http://sodipodi.sourceforge.net/DTD/sodipodi-0.dtd"
   xmlns:inkscape="http://www.inkscape.org/namespaces/inkscape"
   version="1.1"
   id="Layer_1"
   x="0px"
   y="0px"
   viewBox="0 0 512.02 512.02"
   style="enable-background:new 0 0 512.02 512.02;"
   xml:space="preserve"
   inkscape:version="0.48.4 r9939"
   width="100%"
   height="100%"
   sodipodi:docname="linkedin.svg"><metadata
     id="metadata45"><rdf:RDF><cc:Work
         rdf:about=""><dc:format>image/svg+xml</dc:format><dc:type
           rdf:resource="http://purl.org/dc/dcmitype/StillImage" /></cc:Work></rdf:RDF></metadata><defs
     id="defs43" /><sodipodi:namedview
     pagecolor="#ffffff"
     bordercolor="#666666"
     borderopacity="1"
     objecttolerance="10"
     gridtolerance="10"
     guidetolerance="10"
     inkscape:pageopacity="0"
     inkscape:pageshadow="2"
     inkscape:window-width="640"
     inkscape:window-height="480"
     id="namedview41"
     showgrid="false"
     inkscape:zoom="0.4609195"
     inkscape:cx="256.01"
     inkscape:cy="256.01"
     inkscape:window-x="59"
     inkscape:window-y="34"
     inkscape:window-maximized="0"
     inkscape:current-layer="Layer_1" /><g
     transform="translate(0 -1)"
     id="g3"><path
       style="fill:#cccccc"
       d="m 61.813,5.424 c 33.545,0 61.793,28.248 61.793,61.793 0,35.31 -30.014,62.676 -61.793,61.793 C 29.151,129.893 0.02,102.527 0.02,67.217 -0.863,32.789 27.386,5.424 61.813,5.424"
       id="path5"
       inkscape:connector-curvature="0" /><path
       style="fill:#cccccc"
       d="M 96.241,508.596 H 25.62 c -9.71,0 -17.655,-7.945 -17.655,-17.655 V 181.976 c 0,-9.71 7.062,-17.655 16.772,-17.655 H 96.24 c 9.71,0 17.655,7.945 17.655,17.655 v 309.848 c 0.001,8.827 -7.944,16.772 -17.654,16.772"
       id="path7"
       inkscape:connector-curvature="0" /><path
       style="fill:#cccccc"
       d="m 511.137,272.017 c 0,-65.324 -48.552,-116.524 -113.876,-116.524 h -18.538 c -35.31,0 -69.738,16.772 -88.276,44.138 -6.179,6.179 -8.828,8.828 -8.828,8.828 v -35.31 c 0,-3.531 -5.297,-8.828 -8.828,-8.828 h -88.276 c -3.531,0 -8.828,3.531 -8.828,7.945 v 329.269 c 0,3.531 5.297,7.062 8.828,7.062 h 97.103 c 3.531,0 8.828,-3.531 8.828,-7.062 V 310.858 c 0,-32.662 24.717,-60.028 57.379,-60.91 16.772,0 31.779,6.179 43.255,17.655 10.593,10.593 15.007,25.6 15.007,42.372 v 189.793 c 0,3.531 5.297,8.828 8.828,8.828 h 88.276 c 3.531,0 8.828,-5.297 8.828,-8.828 V 272.017 h -0.882 z"
       id="path9"
       inkscape:connector-curvature="0" /></g><g
     id="g11" /><g
     id="g13" /><g
     id="g15" /><g
     id="g17" /><g
     id="g19" /><g
     id="g21" /><g
     id="g23" /><g
     id="g25" /><g
     id="g27" /><g
     id="g29" /><g
     id="g31" /><g
     id="g33" /><g
     id="g35" /><g
     id="g37" /><g
     id="g39" /></svg>