<?xml version="1.0" encoding="UTF-8" standalone="no"?>
<!-- Generator: Adobe Illustrator 19.0.0, SVG Export Plug-In . SVG Version: 6.00 Build 0)  -->

<svg
   xmlns:dc="http://purl.org/dc/elements/1.1/"
   xmlns:cc="http://creativecommons.org/ns#"
   xmlns:rdf="http://www.w3.org/1999/02/22-rdf-syntax-ns#"
   xmlns:svg="http://www.w3.org/2000/svg"
   xmlns="http://www.w3.org/2000/svg"
   xmlns:sodipodi="http://sodipodi.sourceforge.net/DTD/sodipodi-0.dtd"
   xmlns:inkscape="http://www.inkscape.org/namespaces/inkscape"
   version="1.1"
   id="Layer_1"
   x="0px"
   y="0px"
   viewBox="0 0 512 512"
   style="enable-background:new 0 0 512 512;"
   xml:space="preserve"
   inkscape:version="0.48.4 r9939"
   width="100%"
   height="100%"
   sodipodi:docname="reddit (1).svg"><metadata
     id="metadata51"><rdf:RDF><cc:Work
         rdf:about=""><dc:format>image/svg+xml</dc:format><dc:type
           rdf:resource="http://purl.org/dc/dcmitype/StillImage" /></cc:Work></rdf:RDF></metadata><defs
     id="defs49" /><sodipodi:namedview
     pagecolor="#ffffff"
     bordercolor="#666666"
     borderopacity="1"
     objecttolerance="10"
     gridtolerance="10"
     guidetolerance="10"
     inkscape:pageopacity="0"
     inkscape:pageshadow="2"
     inkscape:window-width="640"
     inkscape:window-height="480"
     id="namedview47"
     showgrid="false"
     inkscape:zoom="5.2149125"
     inkscape:cx="291.55336"
     inkscape:cy="356.02381"
     inkscape:window-x="59"
     inkscape:window-y="34"
     inkscape:window-maximized="0"
     inkscape:current-layer="Layer_1" /><g
     id="g3"><g
       id="g5"><g
         id="g7"><path
           d="m 213.146,328.575 c -0.862,7.953 -1.289,16.051 -1.289,24.183 0,45.158 14.054,86.34 33.69,99.507 h 20.907 c 19.635,-13.167 33.707,-54.357 33.707,-99.507 0,-8.132 -0.435,-16.23 -1.297,-24.192 -27.436,6.554 -58.343,6.546 -85.718,0.009 z"
           id="path9"
           style="fill:#cccccc"
           inkscape:connector-curvature="0" /><path
           d="m 443.661,150.221 c 0,-27.162 -22.093,-49.263 -49.254,-49.263 -9.865,0 -19.439,2.97 -27.537,8.457 C 336.056,90.787 298.902,78.917 265.451,77.022 l 17.792,-59.46 49.229,14.131 c -0.947,3.524 -1.613,7.159 -1.613,10.974 0,23.526 19.149,42.667 42.667,42.667 23.526,0 42.667,-19.14 42.667,-42.667 C 416.192,19.14 397.052,0 373.525,0 360.051,0 348.155,6.409 340.33,16.205 L 285.692,0.521 C 277.918,-1.373 269.88,3.209 267.397,11 L 247.6,77.159 c -34.116,1.877 -71.544,13.585 -102.46,32.247 -8.098,-5.478 -17.664,-8.448 -27.537,-8.448 -27.162,0 -49.263,22.101 -49.263,49.263 0,15.309 7.279,29.815 19.319,39.083 -0.23,2.492 -0.35,4.983 -0.35,7.467 0,32.085 18.432,61.798 51.891,83.635 5.948,3.891 12.331,7.475 19.081,10.735 -18.295,15.181 -29.483,39.791 -29.483,66.748 0,36.514 20.335,68.062 49.997,78.524 0.486,1.408 0.973,2.807 1.485,4.19 -25.856,3.507 -45.687,22.665 -45.687,45.687 0,3.772 0.905,10.428 2.398,15.027 2.057,6.391 7.953,10.684 14.669,10.684 h 206.754 c 6.801,0 12.723,-4.361 14.729,-10.829 1.28,-4.13 0.888,-8.644 0.563,-12.279 -0.077,-0.99 -0.179,-1.886 -0.179,-2.603 0,-22.997 -17.749,-41.583 -41.856,-45.508 0.521,-1.434 1.033,-2.893 1.536,-4.361 29.67,-10.462 50.005,-42.018 50.005,-78.532 0,-26.957 -11.187,-51.567 -29.483,-66.756 6.733,-3.251 13.116,-6.835 19.081,-10.726 33.459,-21.837 51.891,-51.55 51.891,-83.635 0,-2.475 -0.119,-4.975 -0.341,-7.467 12.022,-9.269 19.301,-23.775 19.301,-39.084 z M 168.725,179.2 c 0,-18.825 15.309,-34.133 34.133,-34.133 18.824,0 34.133,15.309 34.133,34.133 0,18.824 -15.309,34.133 -34.133,34.133 -18.824,0 -34.133,-15.308 -34.133,-34.133 z m 28.101,53.7 c 3.328,-3.337 8.738,-3.337 12.075,0 6.716,6.716 22.579,14.566 45.158,14.566 22.579,0 38.443,-7.851 45.167,-14.566 3.337,-3.337 8.738,-3.337 12.075,0 3.328,3.337 3.328,8.738 0,12.066 -12.083,12.066 -34.014,19.567 -57.242,19.567 -23.228,0 -45.158,-7.501 -57.233,-19.567 -3.328,-3.336 -3.328,-8.729 0,-12.066 z m 76.288,235.307 c -1.28,0.734 -2.748,1.126 -4.233,1.126 h -25.762 c -1.485,0 -2.944,-0.393 -4.232,-1.126 -26.377,-15.095 -44.1,-61.491 -44.1,-115.447 0,-12.254 0.922,-24.448 2.731,-36.25 0.367,-2.441 1.783,-4.608 3.874,-5.931 2.091,-1.314 4.659,-1.681 7.023,-0.947 29.858,9.02 65.237,9.02 95.189,-0.009 2.364,-0.725 4.932,-0.358 7.014,0.956 2.099,1.314 3.516,3.482 3.883,5.922 1.809,11.802 2.722,23.996 2.722,36.258 -0.001,53.948 -17.724,100.353 -44.109,115.448 z m 32.145,-254.874 c -18.825,0 -34.133,-15.309 -34.133,-34.133 0,-18.824 15.309,-34.133 34.133,-34.133 18.825,0 34.133,15.309 34.133,34.133 0,18.824 -15.309,34.133 -34.133,34.133 z"
           id="path11"
           style="fill:#cccccc"
           inkscape:connector-curvature="0" /><path
           d="m 219.93,179.2 c 0,-9.412 -7.654,-17.067 -17.067,-17.067 -9.413,0 -17.067,7.654 -17.067,17.067 0,9.413 7.654,17.067 17.067,17.067 9.413,0 17.067,-7.655 17.067,-17.067 z"
           id="path13"
           style="fill:#cccccc;stroke:#cccccc"
           inkscape:connector-curvature="0" /><path
           d="m 305.259,162.133 c -9.412,0 -17.067,7.654 -17.067,17.067 0,9.413 7.654,17.067 17.067,17.067 9.412,0 17.067,-7.654 17.067,-17.067 0,-9.413 -7.655,-17.067 -17.067,-17.067 z"
           id="path15"
           style="fill:#cccccc"
           inkscape:connector-curvature="0" /></g></g></g><g
     id="g17" /><g
     id="g19" /><g
     id="g21" /><g
     id="g23" /><g
     id="g25" /><g
     id="g27" /><g
     id="g29" /><g
     id="g31" /><g
     id="g33" /><g
     id="g35" /><g
     id="g37" /><g
     id="g39" /><g
     id="g41" /><g
     id="g43" /><g
     id="g45" /></svg>