<?xml version="1.0" encoding="UTF-8" standalone="no"?>
<!-- Generator: Adobe Illustrator 19.0.0, SVG Export Plug-In . SVG Version: 6.00 Build 0)  -->

<svg
   xmlns:dc="http://purl.org/dc/elements/1.1/"
   xmlns:cc="http://creativecommons.org/ns#"
   xmlns:rdf="http://www.w3.org/1999/02/22-rdf-syntax-ns#"
   xmlns:svg="http://www.w3.org/2000/svg"
   xmlns="http://www.w3.org/2000/svg"
   xmlns:sodipodi="http://sodipodi.sourceforge.net/DTD/sodipodi-0.dtd"
   xmlns:inkscape="http://www.inkscape.org/namespaces/inkscape"
   version="1.1"
   id="Layer_1"
   x="0px"
   y="0px"
   viewBox="0 0 410.155 410.155"
   style="enable-background:new 0 0 410.155 410.155;"
   xml:space="preserve"
   inkscape:version="0.48.4 r9939"
   width="100%"
   height="100%"
   sodipodi:docname="twitter.svg"><metadata
     id="metadata3099"><rdf:RDF><cc:Work
         rdf:about=""><dc:format>image/svg+xml</dc:format><dc:type
           rdf:resource="http://purl.org/dc/dcmitype/StillImage" /></cc:Work></rdf:RDF></metadata><defs
     id="defs3097" /><sodipodi:namedview
     pagecolor="#ffffff"
     bordercolor="#666666"
     borderopacity="1"
     objecttolerance="10"
     gridtolerance="10"
     guidetolerance="10"
     inkscape:pageopacity="0"
     inkscape:pageshadow="2"
     inkscape:window-width="1270"
     inkscape:window-height="801"
     id="namedview3095"
     showgrid="false"
     inkscape:zoom="1.1205993"
     inkscape:cx="223.36266"
     inkscape:cy="116.67168"
     inkscape:window-x="280"
     inkscape:window-y="125"
     inkscape:window-maximized="0"
     inkscape:current-layer="Layer_1" /><path
     style="fill:#76A9EA;"
     d="M403.632,74.18c-9.113,4.041-18.573,7.229-28.28,9.537c10.696-10.164,18.738-22.877,23.275-37.067  l0,0c1.295-4.051-3.105-7.554-6.763-5.385l0,0c-13.504,8.01-28.05,14.019-43.235,17.862c-0.881,0.223-1.79,0.336-2.702,0.336  c-2.766,0-5.455-1.027-7.57-2.891c-16.156-14.239-36.935-22.081-58.508-22.081c-9.335,0-18.76,1.455-28.014,4.325  c-28.672,8.893-50.795,32.544-57.736,61.724c-2.604,10.945-3.309,21.9-2.097,32.56c0.139,1.225-0.44,2.08-0.797,2.481  c-0.627,0.703-1.516,1.106-2.439,1.106c-0.103,0-0.209-0.005-0.314-0.015c-62.762-5.831-119.358-36.068-159.363-85.14l0,0  c-2.04-2.503-5.952-2.196-7.578,0.593l0,0C13.677,65.565,9.537,80.937,9.537,96.579c0,23.972,9.631,46.563,26.36,63.032  c-7.035-1.668-13.844-4.295-20.169-7.808l0,0c-3.06-1.7-6.825,0.485-6.868,3.985l0,0c-0.438,35.612,20.412,67.3,51.646,81.569  c-0.629,0.015-1.258,0.022-1.888,0.022c-4.951,0-9.964-0.478-14.898-1.421l0,0c-3.446-0.658-6.341,2.611-5.271,5.952l0,0  c10.138,31.651,37.39,54.981,70.002,60.278c-27.066,18.169-58.585,27.753-91.39,27.753l-10.227-0.006  c-3.151,0-5.816,2.054-6.619,5.106c-0.791,3.006,0.666,6.177,3.353,7.74c36.966,21.513,79.131,32.883,121.955,32.883  c37.485,0,72.549-7.439,104.219-22.109c29.033-13.449,54.689-32.674,76.255-57.141c20.09-22.792,35.8-49.103,46.692-78.201  c10.383-27.737,15.871-57.333,15.871-85.589v-1.346c-0.001-4.537,2.051-8.806,5.631-11.712c13.585-11.03,25.415-24.014,35.16-38.591  l0,0C411.924,77.126,407.866,72.302,403.632,74.18L403.632,74.18z"
     id="path3063" /><g
     id="g3065" /><g
     id="g3067" /><g
     id="g3069" /><g
     id="g3071" /><g
     id="g3073" /><g
     id="g3075" /><g
     id="g3077" /><g
     id="g3079" /><g
     id="g3081" /><g
     id="g3083" /><g
     id="g3085" /><g
     id="g3087" /><g
     id="g3089" /><g
     id="g3091" /><g
     id="g3093" /><path
     style="fill:#cccccc"
     d="M 100.48198,373.94047 C 68.590632,370.01713 43.168456,362.5147 16.500828,349.15647 2.7174187,342.25215 0.68418983,340.69051 0.68418983,337.00837 c 0,-4.85494 2.31447167,-6.40174 9.58265917,-6.40423 11.031749,-0.004 30.10925,-1.77544 39.31244,-3.65083 18.217712,-3.71232 38.562115,-11.65176 53.062111,-20.70757 3.91482,-2.44496 6.1034,-4.3016 5.35427,-4.54219 -0.69687,-0.2238 -3.47567,-0.89426 -6.17512,-1.48992 -26.319364,-5.80758 -49.80286,-26.21689 -60.77142,-52.81592 -3.982489,-9.65764 -2.353984,-11.92369 7.469852,-10.39426 3.221643,0.50156 7.396704,0.78531 9.277913,0.63056 l 3.42038,-0.28137 -4.908088,-2.56068 C 39.362406,225.9504 23.625654,208.76317 16.245736,191.03581 11.170651,178.84491 7.6018287,158.21949 9.8429438,154.03193 c 1.3721732,-2.56393 4.6868932,-2.43555 10.7710582,0.41718 6.126379,2.87251 15.170453,5.75556 15.170453,4.836 0,-0.37925 -0.672889,-1.24067 -1.495311,-1.91428 -3.200946,-2.62175 -12.132196,-15.66159 -15.518006,-22.65666 -5.82346,-12.03125 -8.23144,-22.76339 -8.305973,-37.018946 -0.08431,-16.125792 2.914688,-29.217607 9.505589,-41.495653 4.447293,-8.284763 5.61531,-8.015457 15.887964,3.663225 26.315114,29.916889 61.265076,52.955744 99.875592,65.837534 19.09715,6.37145 50.45397,12.63456 54.83646,10.95283 1.13826,-0.43679 1.38012,-2.39067 1.38012,-11.14926 0,-23.8817 6.93035,-44.052283 20.56036,-59.840336 12.28455,-14.22957 26.05032,-22.795439 45.02955,-28.020034 6.15347,-1.693926 9.29495,-1.956867 22.75568,-1.904637 14.34376,0.05566 16.26206,0.257823 23.53519,2.480349 10.69783,3.26905 21.31062,8.695849 30.4192,15.554704 6.5662,4.944419 8.07358,5.697684 11.40171,5.697684 5.53415,0 24.25955,-6.531973 37.24681,-12.992787 6.14652,-3.057731 11.87796,-5.405025 12.73655,-5.216208 3.72343,0.818851 2.84307,6.6349 -2.6662,17.614075 -3.86074,7.693863 -6.88377,12.134533 -13.159,19.329822 -2.67237,3.064185 -4.72847,5.701638 -4.5691,5.861008 0.15937,0.159369 6.26912,-1.757322 13.57721,-4.259312 17.39393,-5.954965 18.73724,-6.168493 20.09258,-3.193839 0.93758,2.057759 0.70327,2.837148 -2.14074,7.120525 -5.62518,8.472145 -16.12751,20.402566 -25.99022,29.524346 -5.27548,4.87916 -10.22692,10.09945 -11.00322,11.60064 -1.01587,1.96449 -1.61519,6.98126 -2.13839,17.9002 -1.49802,31.26229 -7.99708,58.91855 -20.76081,88.34588 -12.42891,28.65541 -29.14382,53.21087 -51.36803,75.46348 -37.47619,37.52409 -79.5656,58.16088 -135.6848,66.52739 -12.34172,1.83996 -47.21457,2.33571 -59.34324,0.84362 z"
     id="path3123"
     inkscape:connector-curvature="0" /></svg>